<?xml version="1.0" encoding="UTF-8"?>
<svg version="1.1" xmlns="http://www.w3.org/2000/svg" width="1024" height="1024" viewBox="0 0 1024 1024">
  <!-- Main logo shape in primary color -->
  <path d="M0 0 C0.66 0 1.32 0 2 0 C2.11480713 0.62640381 2.22961426 1.25280762 2.34790039 1.89819336 C9.57840887 40.84121047 20.40919386 79.32950735 48.05859375 108.90234375 C50 111 50 111 52.375 114.0625 C57.08381224 119.33188512 62.71663225 124.10123925 68.84375 127.64453125 C69.91109375 128.31548828 69.91109375 128.31548828 71 129 C71 129.66 71 130.32 71 131 C70.34805664 130.99202393 69.69611328 130.98404785 69.02441406 130.97583008 C27.58760804 130.69347308 -20.44550403 140.31698203 -51.67578125 169.5859375 C-60.3329093 178.57771083 -64.9149185 187.00851008 -65.5 199.5 C-65.36837605 206.0502271 -63.26502453 210.4548108 -60 216 C-59.67 216.99 -59.34 217.98 -59 219 C-57.18805477 220.06291226 -57.18805477 220.06291226 -55 221 C-52.59777445 222.50343368 -50.20944233 224.02616624 -47.828125 225.5625 C-36.15464108 231.49598354 -20.68225644 230.19694206 -8.484375 226.58984375 C0.34624881 223.64697575 8.70742499 219.34710085 17.10351562 215.36767578 C63.83325994 193.30260265 118.43136948 189.31554444 167.41015625 206.8125 C184.31979152 213.21024728 200.47598408 221.52755366 215 232.3125 C217.64098622 234.26636917 220.26594913 236.17729942 223 238 C223 238.99 223 239.98 223 241 C221.43883181 241.33951619 219.87598662 241.67132544 218.3125 242 C217.44238281 242.185625 216.57226562 242.37125 215.67578125 242.5625 C213.06287036 242.98972047 210.64186962 243.07616201 208 243 C207.67 243.66 207.34 244.32 207 245 C205.13891602 245.47021484 205.13891602 245.47021484 202.69140625 245.8359375 C196.43075754 246.98111032 190.80533847 249.20792408 184.9375 251.625 C183.83913818 252.07302979 182.74077637 252.52105957 181.60913086 252.98266602 C151.56711196 265.34644207 125.98963187 282.03916489 102 304 C100.91450244 304.98095579 99.82854296 305.96140061 98.7421875 306.94140625 C97.64043005 307.93988909 96.53886473 308.93858399 95.4375 309.9375 C94.9122876 310.4104248 94.3870752 310.88334961 93.84594727 311.37060547 C91.04135108 313.88068833 91.04135108 313.88068833 89 317 C88.34 317 87.68 317 87 317 C86.78988281 317.53238281 86.57976562 318.06476563 86.36328125 318.61328125 C84.46550134 321.93575554 81.83609988 324.46361193 79.1875 327.1875 C71.79466211 334.97319902 65.32292825 343.33429644 59 352 C58.58266602 352.57073242 58.16533203 353.14146484 57.73535156 353.72949219 C55.05776857 357.42154921 52.4929452 361.18163714 50 365 C49.5963623 365.61794434 49.19272461 366.23588867 48.77685547 366.87255859 C25.51161995 402.89242952 10.58857999 441.90335103 3 484 C2.01 484.33 1.02 484.66 0 485 C-0.08975098 484.39865234 -0.17950195 483.79730469 -0.27197266 483.17773438 C-5.99447054 445.46483423 -15.66781944 398.90345294 -44.71875 371.37109375 C-46 370 -46 370 -46 368 C-46.88558594 367.61328125 -46.88558594 367.61328125 -47.7890625 367.21875 C-50.18450783 365.8982925 -51.54430707 364.52121753 -53.375 362.5 C-59.82775334 355.85317889 -67.69460386 350.8013686 -75.4296875 345.765625 C-76.70199219 344.89164063 -76.70199219 344.89164063 -78 344 C-78 343.67 -78 343.34 -78 343 C-76.99026123 343.01571045 -75.98052246 343.0314209 -74.94018555 343.04760742 C-26.36547826 343.7342859 23.44693298 339.63636254 60.55859375 304.5234375 C68.53569904 296.27830148 73.87825608 286.44751872 74.4375 274.75 C73.29348478 264.94415523 69.63464215 258.44537939 62 252 C49.71394944 244.0448262 36.67195286 242.19645145 22.37109375 244.61328125 C11.61658575 247.44210317 1.50452005 252.47345299 -8.2421875 257.7578125 C-60.45803809 285.75384212 -124.48635827 281.53365872 -179.44580078 264.9609375 C-185.65578978 262.98107385 -185.65578978 262.98107385 -188 262 C-188.33 261.34 -188.66 260.68 -189 260 C-189.804375 259.896875 -190.60875 259.79375 -191.4375 259.6875 C-195.70568806 258.86381459 -198.93217923 257.11818853 -202.73046875 255.05859375 C-205.03575226 253.78864266 -205.03575226 253.78864266 -208 254 C-208 253.34 -208 252.68 -208 252 C-208.65355469 251.76539063 -209.30710937 251.53078125 -209.98046875 251.2890625 C-213.93124152 249.60244541 -217.58704258 247.50573525 -221.3125 245.375 C-222.42334961 244.74464844 -222.42334961 244.74464844 -223.55664062 244.1015625 C-225.37269011 243.07051505 -227.18656533 242.03563954 -229 241 C-226.2255473 239.51332104 -223.62093529 238.53528547 -220.5703125 237.7734375 C-219.70438477 237.55091309 -218.83845703 237.32838867 -217.94628906 237.09912109 C-217.01526367 236.86016113 -216.08423828 236.62120117 -215.125 236.375 C-174.51191284 225.53547014 -136.26532997 205.99173474 -104 179 C-102.12521686 177.47889935 -100.25020802 175.95807684 -98.375 174.4375 C-89.93819837 167.92840759 -89.93819837 167.92840759 -83 160 C-82.34 160 -81.68 160 -81 160 C-80.77183594 159.44054687 -80.54367187 158.88109375 -80.30859375 158.3046875 C-78.63700234 155.36069069 -76.5245329 153.44927209 -74.0625 151.125 C-68.19938608 145.43761445 -63.24828443 139.23013058 -58.32324219 132.72900391 C-57.07433217 131.09712554 -55.792018 129.49096919 -54.5078125 127.88671875 C-37.40068916 106.37984005 -24.41009155 81.7596937 -15 56 C-14.33097656 54.20369141 -14.33097656 54.20369141 -13.6484375 52.37109375 C-7.67681673 35.43865938 -3.41880986 17.61501078 0 0 Z " fill="#3498db" transform="translate(512,270)"/>
  
  <!-- Secondary elements in lighter primary -->
  <path d="M0 0 C-0.66 0.66 -1.32 1.32 -2 2 C-2.99 1.67 -3.98 1.34 -5 1 C-5 1.66 -5 2.32 -5 3 C-5.7425 3.12375 -6.485 3.2475 -7.25 3.375 C-9.89626743 3.84330316 -9.89626743 3.84330316 -11.66015625 4.9140625 C-15.0372242 6.48138285 -18.57033702 7.20241712 -22.1875 8 C-22.88552734 8.165 -23.58355469 8.33 -24.30273438 8.5 C-40.25564545 12.0605451 -55.80802174 12.16277817 -72.0625 11.625 C-74.10478573 11.56657943 -76.14710388 11.50928103 -78.18945312 11.453125 C-83.12677023 11.31497638 -88.06340348 11.16179272 -93 11 C-93.33 10.34 -93.66 9.68 -94 9 C-92.99026123 9.01571045 -91.98052246 9.0314209 -90.94018555 9.04760742 C-62.18873923 9.4540535 -33.07672551 9.71695184 -5.64453125 -0.21484375 C-3 -1 -3 -1 0 0 Z " fill="#5dade2" transform="translate(528,604)"/>
  
  <!-- Additional accent elements -->
  <path d="M0 0 C0.96793329 3.05009557 0.99918252 4.92208849 0.109375 7.984375 C-0.10436768 8.7477417 -0.31811035 9.5111084 -0.53833008 10.29760742 C-0.77318115 11.10689697 -1.00803223 11.91618652 -1.25 12.75 C-3.66471058 21.435399 -5.49286569 30.11648473 -7 39 C-8.485 39.495 -8.485 39.495 -10 40 C-10.33910994 37.95928485 -10.67102704 35.91737379 -11 33.875 C-11.185625 32.73804688 -11.37125 31.60109375 -11.5625 30.4296875 C-11.96956049 27.23862398 -12.07809902 24.21182209 -12 21 C-11.67 21 -11.34 21 -11 21 C-11 22.65 -11 24.3 -11 26 C-10.01 26.33 -9.02 26.66 -8 27 C-7.90203125 26.44054687 -7.8040625 25.88109375 -7.703125 25.3046875 C-6.28944095 17.72441612 -4.19292082 10.38780121 -2 3 C-1.34 3 -0.68 3 0 3 C0 2.01 0 1.02 0 0 Z " fill="#2980b9" transform="translate(522,715)"/>
  
  <!-- Clean up other minor elements -->
  <path d="M0 0 C0.66 0 1.32 0 2 0 C2.79332676 3.93716736 3.58434958 7.87479439 4.375 11.8125 C4.59671875 12.91271484 4.8184375 14.01292969 5.046875 15.14648438 C6.43870687 22.08517562 7.76179163 29.03223195 9 36 C8.67 35.34 8.34 34.68 8 34 C7.34 34 6.68 34 6 34 C5.35118552 31.45906145 4.70587101 28.91731727 4.0625 26.375 C3.78889648 25.30572266 3.78889648 25.30572266 3.50976562 24.21484375 C2.48683201 20.16030687 1.62042633 16.14052941 1 12 C0.89042969 12.56589844 0.78085937 13.13179688 0.66796875 13.71484375 C0.50941406 14.44832031 0.35085938 15.18179687 0.1875 15.9375 C0.03667969 16.66839844 -0.11414063 17.39929688 -0.26953125 18.15234375 C-0.51058594 18.76207031 -0.75164062 19.37179687 -1 20 C-1.99 20.33 -2.98 20.66 -4 21 C-2.74602127 13.98305518 -1.42415912 6.98443993 0 0 Z " fill="#3498db" transform="translate(512,270)"/>
</svg>